<svg width="60" height="49" viewBox="0 0 60 49" fill="none" xmlns="http://www.w3.org/2000/svg">
    <path d="M31.315 23.62C35.915 22.665 39.7325 18.51 39.7325 12.425C39.7325 5.915 34.9825 0 25.695 0H0V48.765H26.5C35.875 48.765 40.7075 42.9125 40.7075 35.535C40.685 29.47 36.5925 24.425 31.315 23.62ZM10.39 9.1375H23.4075C26.925 9.1375 29.1075 11.26 29.1075 14.2475C29.1075 17.385 26.905 19.3575 23.4075 19.3575H10.3875L10.39 9.1375ZM23.85 39.6275H10.3875V28.5175H23.8525C27.8775 28.5175 30.0625 30.9975 30.0625 34.0725C30.085 37.57 27.7325 39.6275 23.8525 39.6275H23.85ZM53.49 0.0825C50.3525 0.0825 47.7025 2.7125 47.7025 5.85C47.7025 8.9875 49.9075 11.1075 52.685 11.1075C53.28 11.1075 53.8525 11.045 54.085 10.895C53.49 13.525 50.7975 16.6 48.445 17.85L52.4725 21.135C56.99 17.9375 60 13.0375 60 7.5475C60 2.7975 56.925 0.0825 53.49 0.0825Z" fill="white"/>
    </svg>
    