<svg width="38" height="35" viewBox="0 0 38 35" fill="none" xmlns="http://www.w3.org/2000/svg">
    <path
        d="M25.1725 30.7973C30.3738 25.5998 32.7025 20.4473 33.5725 14.4773C32.1111 15.1995 30.4542 15.4258 28.8526 15.1221C27.2511 14.8184 25.792 14.0011 24.6965 12.7941C23.6009 11.587 22.9284 10.0559 22.7808 8.4325C22.6332 6.80909 23.0186 5.18179 23.8785 3.79696C24.7384 2.41212 26.0261 1.34516 27.5466 0.757584C29.0671 0.170011 30.7377 0.0938248 32.3054 0.54056C33.8731 0.987294 35.2526 1.93263 36.235 3.23344C37.2174 4.53426 37.7492 6.11973 37.75 7.74983C37.7463 17.4698 35.77 25.5023 27.8238 33.4523C27.4717 33.8044 26.9942 34.0022 26.4963 34.0022C25.9983 34.0022 25.5208 33.8044 25.1688 33.4523C24.8167 33.1003 24.6189 32.6227 24.6189 32.1248C24.6189 31.6269 24.8204 31.1494 25.1725 30.7973ZM2.67251 30.7973C7.87376 25.5998 10.2063 20.4473 11.0725 14.4773C9.61108 15.1995 7.95417 15.4258 6.35261 15.1221C4.75105 14.8184 3.29205 14.0011 2.19647 12.7941C1.1009 11.587 0.428412 10.0559 0.280815 8.4325C0.133218 6.80909 0.51855 5.18179 1.37847 3.79696C2.2384 2.41212 3.5261 1.34516 5.04662 0.757584C6.56715 0.170011 8.23771 0.0938248 9.80541 0.54056C11.3731 0.987294 12.7526 1.93263 13.735 3.23344C14.7174 4.53426 15.2492 6.11973 15.25 7.74983C15.2463 17.4698 13.27 25.5023 5.32376 33.4523C4.97168 33.8044 4.49417 34.0022 3.99626 34.0022C3.49835 34.0022 3.02083 33.8044 2.66876 33.4523C2.31668 33.1003 2.11889 32.6227 2.11889 32.1248C2.11889 31.6269 2.32043 31.1494 2.67251 30.7973Z"
        fill="white" />
</svg>
    
    