<svg width="55" height="55" viewBox="0 0 55 55" fill="none" xmlns="http://www.w3.org/2000/svg">
    <path d="M24.0052 50.4167C22.9358 50.4167 21.9335 50.1875 20.9985 49.7292C20.0635 49.2708 19.2706 48.6215 18.6198 47.7812L7.10417 33.1719C6.79861 32.8281 6.66493 32.4179 6.70313 31.9412C6.74132 31.4646 6.9132 31.0727 7.21875 30.7656C7.98264 29.9635 8.89931 29.4861 9.96875 29.3333C11.0382 29.1805 12.0313 29.3906 12.9479 29.9635L17.1875 32.5417V13.75C17.1875 13.1007 17.4075 12.556 17.8475 12.116C18.2875 11.676 18.8314 11.4568 19.4792 11.4583C20.1285 11.4583 20.6823 11.6783 21.1406 12.1183C21.599 12.5583 21.8281 13.1022 21.8281 13.75V36.6667C21.8281 37.5451 21.4363 38.2044 20.6525 38.6444C19.8688 39.0844 19.0957 39.0744 18.3333 38.6146L16.2708 37.3542L22.2292 44.9739C22.4583 45.2413 22.7257 45.4514 23.0313 45.6042C23.3368 45.7569 23.6615 45.8333 24.0052 45.8333H36.6667C37.9271 45.8333 39.0065 45.3842 39.9048 44.4858C40.8031 43.5875 41.2515 42.5089 41.25 41.25V32.0833C41.25 31.434 41.03 30.8894 40.59 30.4494C40.15 30.0094 39.6061 29.7901 38.9583 29.7917H28.7031C28.0538 29.7917 27.5092 29.5717 27.0692 29.1317C26.6292 28.6917 26.4099 28.1478 26.4115 27.5C26.4115 26.8507 26.6315 26.306 27.0715 25.866C27.5115 25.426 28.0553 25.2068 28.7031 25.2083H38.9583C40.8681 25.2083 42.4913 25.8767 43.8281 27.2135C45.1649 28.5503 45.8333 30.1736 45.8333 32.0833V41.25C45.8333 43.7708 44.9358 45.9288 43.1406 47.724C41.3455 49.5191 39.1875 50.4167 36.6667 50.4167H24.0052ZM27.4427 20.625C26.7934 20.625 26.2495 20.405 25.811 19.965C25.3726 19.525 25.1526 18.9811 25.151 18.3333C25.151 18.2569 25.2465 17.875 25.4375 17.1875C25.7431 16.6528 25.9722 16.1081 26.125 15.5535C26.2778 14.999 26.3542 14.3978 26.3542 13.75C26.3542 11.8403 25.6858 10.217 24.349 8.8802C23.0122 7.54339 21.3889 6.87499 19.4792 6.87499C17.5694 6.87499 15.9462 7.54339 14.6094 8.8802C13.2726 10.217 12.6042 11.8403 12.6042 13.75C12.6042 14.3993 12.6806 15.0012 12.8333 15.5558C12.9861 16.1104 13.2153 16.6543 13.5208 17.1875C13.6354 17.3785 13.7118 17.5694 13.75 17.7604C13.7882 17.9514 13.8073 18.1424 13.8073 18.3333C13.8073 18.9826 13.5972 19.5273 13.1771 19.9673C12.7569 20.4073 12.2222 20.6265 11.5729 20.625C11.1528 20.625 10.7617 20.5104 10.3996 20.2812C10.0375 20.0521 9.76021 19.7656 9.56771 19.4219C9.07118 18.5816 8.68924 17.684 8.42188 16.7292C8.15452 15.7743 8.02084 14.7812 8.02084 13.75C8.02084 10.5799 9.13841 7.87721 11.3735 5.64207C13.6087 3.40694 16.3106 2.29013 19.4792 2.29166C22.6493 2.29166 25.3519 3.40923 27.5871 5.64437C29.8222 7.87951 30.939 10.5814 30.9375 13.75C30.9375 14.7812 30.8038 15.7743 30.5365 16.7292C30.2691 17.684 29.8872 18.5816 29.3906 19.4219C29.1997 19.7656 28.9323 20.0521 28.5885 20.2812C28.2448 20.5104 27.8629 20.625 27.4427 20.625Z" fill="white"/>
    </svg>
                       