<svg width="54" height="57" viewBox="0 0 54 57" fill="none" xmlns="http://www.w3.org/2000/svg">
    <path
        d="M20.7 15.7625C22.775 15.7625 24.45 17.4375 24.45 19.5125C24.45 21.5875 22.775 23.2625 20.7 23.2625C18.625 23.2625 16.95 21.5875 16.95 19.5125C16.95 17.4375 18.625 15.7625 20.7 15.7625ZM33.2 33.2625C35.275 33.2625 36.95 34.9375 36.95 37.0125C36.95 39.0875 35.275 40.7625 33.2 40.7625C31.125 40.7625 29.45 39.0875 29.45 37.0125C29.45 34.9375 31.125 33.2625 33.2 33.2625ZM17.975 40.7625L14.45 37.2375L35.925 15.7625L39.45 19.2875L17.975 40.7625ZM43.575 5.3875L45.1 15.0375L53.875 19.5125L49.45 28.2625L53.9 37.0125L45.05 41.4875L43.525 51.1375L33.8 49.6125L26.875 56.5375L19.925 49.5125L10.275 51.1125L8.725 41.3875L0 36.9375L4.45 28.1875L0.025 19.5125L8.8 14.9875L10.325 5.4375L20 7.0125L26.95 0L33.85 6.9125L43.575 5.3875ZM47.2 21.6875L40.7 18.2625L39.45 11.0375L32.2 12.0875L26.95 7.0125L21.7 12.0875L14.45 11.0375L13.2 18.2625L6.7 21.6875L9.95 28.2625L6.7 34.8375L13.2 38.2625L14.45 45.4875L21.7 44.4375L26.95 49.5125L32.2 44.4375L39.45 45.4875L40.7 38.2625L47.2 34.8375L43.95 28.2625L47.2 21.6875Z"
        fill="white" />
</svg>
    