<svg width="86" height="61" viewBox="0 0 86 61" fill="none" xmlns="http://www.w3.org/2000/svg">
    <path d="M13.4375 0C9.87365 0 6.45577 1.33891 3.93575 3.72218C1.41573 6.10546 0 9.33787 0 12.7083V48.2917C0 51.6621 1.41573 54.8945 3.93575 57.2778C6.45577 59.6611 9.87365 61 13.4375 61H72.5625C76.1264 61 79.5442 59.6611 82.0642 57.2778C84.5843 54.8945 86 51.6621 86 48.2917V12.7083C86 9.33787 84.5843 6.10546 82.0642 3.72218C79.5442 1.33891 76.1264 0 72.5625 0H13.4375ZM5.375 12.7083C5.375 10.6861 6.22444 8.74661 7.73645 7.31664C9.24846 5.88668 11.2992 5.08333 13.4375 5.08333H72.5625C74.7008 5.08333 76.7515 5.88668 78.2635 7.31664C79.7756 8.74661 80.625 10.6861 80.625 12.7083V48.2917C80.625 50.3139 79.7756 52.2534 78.2635 53.6834C76.7515 55.1133 74.7008 55.9167 72.5625 55.9167H13.4375C11.2992 55.9167 9.24846 55.1133 7.73645 53.6834C6.22444 52.2534 5.375 50.3139 5.375 48.2917V12.7083ZM13.4375 10.1667C12.7247 10.1667 12.0412 10.4344 11.5372 10.9111C11.0331 11.3878 10.75 12.0342 10.75 12.7083C10.75 13.3824 11.0331 14.0289 11.5372 14.5056C12.0412 14.9822 12.7247 15.25 13.4375 15.25H40.3125C41.0253 15.25 41.7088 14.9822 42.2129 14.5056C42.7169 14.0289 43 13.3824 43 12.7083C43 12.0342 42.7169 11.3878 42.2129 10.9111C41.7088 10.4344 41.0253 10.1667 40.3125 10.1667H13.4375ZM13.4375 20.3333C12.7247 20.3333 12.0412 20.6011 11.5372 21.0778C11.0331 21.5544 10.75 22.2009 10.75 22.875C10.75 23.5491 11.0331 24.1956 11.5372 24.6722C12.0412 25.1489 12.7247 25.4167 13.4375 25.4167H56.4375C57.1503 25.4167 57.8338 25.1489 58.3379 24.6722C58.8419 24.1956 59.125 23.5491 59.125 22.875C59.125 22.2009 58.8419 21.5544 58.3379 21.0778C57.8338 20.6011 57.1503 20.3333 56.4375 20.3333H13.4375ZM16.125 35.5833C14.6995 35.5833 13.3323 36.1189 12.3243 37.0722C11.3163 38.0255 10.75 39.3185 10.75 40.6667V45.75C10.75 47.0982 11.3163 48.3912 12.3243 49.3445C13.3323 50.2978 14.6995 50.8333 16.125 50.8333H37.625C39.0505 50.8333 40.4177 50.2978 41.4257 49.3445C42.4337 48.3912 43 47.0982 43 45.75V40.6667C43 39.3185 42.4337 38.0255 41.4257 37.0722C40.4177 36.1189 39.0505 35.5833 37.625 35.5833H16.125Z" fill="#25D366"/>
</svg>
    