<svg width="38" height="35" viewBox="0 0 38 35" fill="none" xmlns="http://www.w3.org/2000/svg">
    <path d="M12.8275 30.7973C7.62624 25.5998 5.29749 20.4473 4.42749 14.4773C5.88892 15.1995 7.54583 15.4258 9.14739 15.1221C10.7489 14.8184 12.208 14.0011 13.3035 12.7941C14.3991 11.587 15.0716 10.0559 15.2192 8.4325C15.3668 6.80909 14.9814 5.18179 14.1215 3.79696C13.2616 2.41212 11.9739 1.34516 10.4534 0.757584C8.93285 0.170011 7.26229 0.0938248 5.6946 0.54056C4.1269 0.987294 2.74743 1.93263 1.76503 3.23344C0.782623 4.53426 0.250774 6.11973 0.249992 7.74983C0.253742 17.4698 2.23 25.5023 10.1762 33.4523C10.5283 33.8044 11.0058 34.0022 11.5037 34.0022C12.0017 34.0022 12.4792 33.8044 12.8312 33.4523C13.1833 33.1003 13.3811 32.6227 13.3811 32.1248C13.3811 31.6269 13.1796 31.1494 12.8275 30.7973ZM35.3275 30.7973C30.1262 25.5998 27.7937 20.4473 26.9275 14.4773C28.3889 15.1995 30.0458 15.4258 31.6474 15.1221C33.2489 14.8184 34.708 14.0011 35.8035 12.7941C36.8991 11.587 37.5716 10.0559 37.7192 8.4325C37.8668 6.80909 37.4815 5.18179 36.6215 3.79696C35.7616 2.41212 34.4739 1.34516 32.9534 0.757584C31.4329 0.170011 29.7623 0.0938248 28.1946 0.54056C26.6269 0.987294 25.2474 1.93263 24.265 3.23344C23.2826 4.53426 22.7508 6.11973 22.75 7.74983C22.7537 17.4698 24.73 25.5023 32.6762 33.4523C33.0283 33.8044 33.5058 34.0022 34.0037 34.0022C34.5017 34.0022 34.9792 33.8044 35.3312 33.4523C35.6833 33.1003 35.8811 32.6227 35.8811 32.1248C35.8811 31.6269 35.6796 31.1494 35.3275 30.7973Z" fill="white"/>
    </svg>
    