<svg width="51" height="53" viewBox="0 0 51 53" fill="none" xmlns="http://www.w3.org/2000/svg">
    <path
        d="M15 42.5C17.75 42.5 20 44.75 20 47.5C20 50.25 17.75 52.5 15 52.5C12.25 52.5 10 50.25 10 47.5C10 44.75 12.25 42.5 15 42.5ZM40 42.5C42.75 42.5 45 44.75 45 47.5C45 50.25 42.75 52.5 40 52.5C37.25 52.5 35 50.25 35 47.5C35 44.75 37.25 42.5 40 42.5ZM15.5 34.5C15.5 34.75 15.75 35 16 35H45V40H15C12.25 40 10 37.75 10 35C10 34 10.25 33.25 10.5 32.5L13.75 26.5L5 7.5H0V2.5H8.25L19 25H36.5L46.25 7.5L50.5 10L40.75 27.5C40 29 38.25 30 36.5 30H17.75L15.5 34V34.5ZM21 0C23 0 24.5 1.5 24.5 3.5C24.5 5.5 23 7 21 7C19 7 17.5 5.5 17.5 3.5C17.5 1.5 19.25 0 21 0ZM34 20C32 20 30.5 18.5 30.5 16.5C30.5 14.5 32 13 34 13C36 13 37.5 14.5 37.5 16.5C37.5 18.5 35.75 20 34 20ZM20.5 20L17.5 17L34.5 0L37.5 3L20.5 20Z"
        fill="white" />
</svg>
    