<svg width="20" height="20" viewBox="0 0 20 20" fill="none" xmlns="http://www.w3.org/2000/svg">
    <g clip-path="url(#clip0_2_20)">
        <path
            d="M0.42763 9.88032C0.427161 11.5607 0.869623 13.2015 1.71096 14.6477L0.347168 19.5889L5.44298 18.263C6.85241 19.0244 8.43158 19.4234 10.0363 19.4235H10.0406C15.3381 19.4235 19.6505 15.1457 19.6528 9.88784C19.6538 7.34001 18.6548 4.94419 16.8398 3.14171C15.0251 1.33939 12.6117 0.346286 10.0402 0.345123C4.74195 0.345123 0.429895 4.62264 0.427708 9.88032"
            fill="url(#paint0_linear_2_20)" />
        <path
            d="M0.0846547 9.87721C0.0841079 11.6181 0.542428 13.3175 1.41376 14.8155L0.00106812 19.9339L5.2796 18.5605C6.734 19.3474 8.37152 19.7622 10.0378 19.7629H10.0421C15.5297 19.7629 19.997 15.3312 19.9993 9.88512C20.0003 7.24574 18.9654 4.7638 17.0855 2.89674C15.2055 1.02992 12.7057 0.00108527 10.0421 0C4.55349 0 0.086842 4.43101 0.0846547 9.87721ZM3.22813 14.5575L3.03104 14.2471C2.20252 12.9398 1.76521 11.4291 1.76584 9.87783C1.76763 5.35109 5.48013 1.66822 10.0452 1.66822C12.256 1.66915 14.3336 2.52434 15.8963 4.07597C17.4589 5.62775 18.3187 7.69054 18.3182 9.8845C18.3161 14.4112 14.6036 18.0946 10.0421 18.0946H10.0388C8.55354 18.0938 7.09686 17.698 5.8265 16.95L5.52419 16.7721L2.3918 17.5871L3.22813 14.5574V14.5575Z"
            fill="url(#paint1_linear_2_20)" />
        <path
            d="M7.55317 5.74792C7.36678 5.33683 7.17063 5.32854 6.99338 5.32133C6.84823 5.31512 6.68231 5.31559 6.51654 5.31559C6.35062 5.31559 6.08103 5.37753 5.85316 5.62443C5.62506 5.87156 4.9823 6.46877 4.9823 7.68342C4.9823 8.89815 5.87386 10.072 5.99815 10.2369C6.12259 10.4015 7.71933 12.9739 10.2482 13.9635C12.3499 14.7859 12.7776 14.6223 13.2337 14.5811C13.6899 14.54 14.7058 13.984 14.913 13.4075C15.1204 12.8311 15.1204 12.337 15.0582 12.2337C14.996 12.1309 14.8301 12.0691 14.5813 11.9457C14.3324 11.8222 13.1093 11.2249 12.8812 11.1425C12.6531 11.0602 12.4873 11.0191 12.3214 11.2663C12.1554 11.5131 11.679 12.0691 11.5338 12.2337C11.3887 12.3988 11.2435 12.4193 10.9948 12.2958C10.7458 12.1719 9.94453 11.9116 8.99391 11.0706C8.25428 10.4161 7.75495 9.60799 7.60981 9.36078C7.46466 9.11396 7.59426 8.98016 7.71902 8.85714C7.83081 8.74652 7.9679 8.56885 8.09242 8.42474C8.21648 8.28055 8.25788 8.17768 8.34084 8.01303C8.42388 7.84823 8.38232 7.70404 8.32022 7.58055C8.25788 7.45706 7.7744 6.23606 7.55317 5.74792Z"
            fill="white" />
    </g>
    <defs>
        <linearGradient id="paint0_linear_2_20" x1="965.628" y1="1924.73" x2="965.628" y2="0.345123"
            gradientUnits="userSpaceOnUse">
            <stop stop-color="#1FAF38" />
            <stop offset="1" stop-color="#60D669" />
        </linearGradient>
        <linearGradient id="paint1_linear_2_20" x1="999.915" y1="1993.39" x2="999.915" y2="0"
            gradientUnits="userSpaceOnUse">
            <stop stop-color="#F9F9F9" />
            <stop offset="1" stop-color="white" />
        </linearGradient>
        <clipPath id="clip0_2_20">
            <rect width="20" height="20" fill="white" />
        </clipPath>
    </defs>
</svg>
     