<svg width="42" height="46" viewBox="0 0 42 46" fill="none" xmlns="http://www.w3.org/2000/svg">
    <path
        d="M41.25 33.2292C41.25 34.1 40.7688 34.8563 40.0354 35.2458L21.9313 45.4208C21.5646 45.6958 21.1063 45.8333 20.625 45.8333C20.1438 45.8333 19.6854 45.6958 19.3188 45.4208L1.21459 35.2458C0.847191 35.0528 0.539724 34.7627 0.325593 34.4072C0.111462 34.0516 -0.00114393 33.6442 8.7616e-06 33.2292V12.6042C8.7616e-06 11.7333 0.481259 10.9771 1.21459 10.5875L19.3188 0.4125C19.6854 0.1375 20.1438 0 20.625 0C21.1063 0 21.5646 0.1375 21.9313 0.4125L40.0354 10.5875C40.7688 10.9771 41.25 11.7333 41.25 12.6042V33.2292ZM4.58334 16.0417V29.7917H7.44793V25.2083H9.16667C10.3823 25.2083 11.548 24.7254 12.4076 23.8659C13.2671 23.0064 13.75 21.8406 13.75 20.625C13.75 19.4094 13.2671 18.2436 12.4076 17.3841C11.548 16.5246 10.3823 16.0417 9.16667 16.0417H4.58334ZM7.44793 22.9167V18.3333H8.59376C9.20155 18.3333 9.78444 18.5748 10.2142 19.0045C10.644 19.4343 10.8854 20.0172 10.8854 20.625C10.8854 21.2328 10.644 21.8157 10.2142 22.2455C9.78444 22.6752 9.20155 22.9167 8.59376 22.9167H7.44793ZM15.4688 16.0417V29.7917H18.3333V25.2083H20.0521L21.5646 29.7917H24.5896L22.7792 24.3146C23.9021 23.4896 24.6354 22.1375 24.6354 20.625C24.6354 19.4094 24.1525 18.2436 23.293 17.3841C22.4335 16.5246 21.2677 16.0417 20.0521 16.0417H15.4688ZM18.3333 22.9167V18.3333H19.4792C20.087 18.3333 20.6699 18.5748 21.0996 19.0045C21.5294 19.4343 21.7708 20.0172 21.7708 20.625C21.7708 21.2328 21.5294 21.8157 21.0996 22.2455C20.6699 22.6752 20.087 22.9167 19.4792 22.9167H18.3333ZM32.0833 16.0417C28.9208 16.0417 26.3542 19.1125 26.3542 22.9167C26.3542 26.7208 28.9208 29.7917 32.0833 29.7917C35.2458 29.7917 37.8125 26.7208 37.8125 22.9167C37.8125 19.1125 35.2458 16.0417 32.0833 16.0417ZM32.0833 18.9062C33.825 18.9062 35.2458 20.6938 35.2458 22.9167C35.2458 25.1396 33.825 26.9271 32.0833 26.9271C30.3417 26.9271 28.9438 25.1396 28.9438 22.9167C28.9438 20.6938 30.3417 18.9062 32.0833 18.9062Z"
        fill="white" />
</svg>
    