<svg width="60" height="60" viewBox="0 0 60 60" fill="none" xmlns="http://www.w3.org/2000/svg">
    <path d="M53.4956 44.2463C48.495 50.7506 50.9963 56.2481 52.755 59.0044C53.4956 60 52.5 60 52.0031 60C49.96 59.6288 48.0163 58.8373 46.295 57.6757C44.5737 56.5141 43.1124 55.0077 42.0037 53.2519C41.5069 52.9969 41.2519 52.755 40.7531 52.9969C37.245 54.0038 33.75 54.7444 30 54.5025C13.4944 54.5025 0 42.5006 0 27.5006C0 12.5006 13.4944 0 30 0C46.5056 0 60 12.2456 60 27.5006C60 33.75 57.5006 39.5006 53.4956 44.2463ZM30 34.9987L37.9969 40.4963C38.1588 40.593 38.3448 40.6421 38.5333 40.6378C38.7219 40.6335 38.9055 40.576 39.0628 40.472C39.2202 40.3679 39.3449 40.2215 39.4227 40.0497C39.5005 39.8778 39.5282 39.6875 39.5025 39.5006L36.5044 29.9981L44.2463 24.0037C44.3313 23.8767 44.3863 23.7319 44.407 23.5805C44.4277 23.429 44.4135 23.2748 44.3656 23.1296C44.3177 22.9844 44.2373 22.852 44.1305 22.7426C44.0237 22.6332 43.8934 22.5496 43.7494 22.4981H34.005L30.7519 12.9956C30.6569 12.8901 30.5408 12.8056 30.4111 12.7479C30.2814 12.6901 30.141 12.6602 29.9991 12.6602C29.8571 12.6602 29.7167 12.6901 29.587 12.7479C29.4573 12.8056 29.3412 12.8901 29.2463 12.9956L25.9931 22.4981H15.9937C15.8232 22.5601 15.6727 22.6674 15.5586 22.8085C15.4444 22.9496 15.371 23.1192 15.3461 23.299C15.3212 23.4787 15.3459 23.6619 15.4174 23.8287C15.4889 23.9955 15.6045 24.1397 15.7519 24.2456L23.2519 30.2531L20.7525 39.5006C20.7485 39.6555 20.7805 39.8092 20.8459 39.9497C20.9114 40.0901 21.0086 40.2135 21.1298 40.31C21.251 40.4065 21.393 40.4735 21.5445 40.5059C21.6961 40.5382 21.8531 40.5349 22.0031 40.4963L30 34.9987Z" fill="white"/>
    </svg>
    