<svg width="49" height="48" viewBox="0 0 49 48" fill="none" xmlns="http://www.w3.org/2000/svg">
    <g clip-path="url(#clip0_12_16)">
        <path
            d="M24.5 44C21.6757 44 19.0215 43.4747 16.5375 42.424C14.0535 41.3733 11.8927 39.9487 10.0552 38.15C8.21772 36.35 6.76337 34.2333 5.69218 31.8C4.62098 29.3667 4.0847 26.7667 4.08334 24C4.08334 21.2333 4.61962 18.6333 5.69218 16.2C6.76473 13.7667 8.21908 11.65 10.0552 9.85C11.8927 8.05 14.0535 6.62533 16.5375 5.576C19.0215 4.52667 21.6757 4.00133 24.5 4C26.7118 4 28.8045 4.31667 30.7781 4.95C32.7517 5.58333 34.5722 6.46667 36.2396 7.6L33.2792 10.55C31.9861 9.75 30.608 9.12467 29.1448 8.674C27.6816 8.22333 26.1333 7.99867 24.5 8C19.9743 8 16.1203 9.558 12.9381 12.674C9.75577 15.79 8.16532 19.5653 8.16668 24C8.16668 28.4333 9.75714 32.2087 12.9381 35.326C16.119 38.4433 19.973 40.0013 24.5 40C25.5889 40 26.6438 39.9 27.6646 39.7C28.6854 39.5 29.6722 39.2167 30.625 38.85L33.6875 41.9C32.2924 42.5667 30.8292 43.0833 29.2979 43.45C27.7667 43.8167 26.1674 44 24.5 44ZM38.7917 40V34H32.6667V30H38.7917V24H42.875V30H49V34H42.875V40H38.7917ZM21.6417 33.2L12.9646 24.7L15.8229 21.9L21.6417 27.6L42.0583 7.55L44.9167 10.35L21.6417 33.2Z"
            fill="white" />
    </g>
    <defs>
        <clipPath id="clip0_12_16">
            <rect width="49" height="48" fill="white" />
        </clipPath>
    </defs>
</svg>
    