<svg width="60" height="49" viewBox="0 0 60 49" fill="none" xmlns="http://www.w3.org/2000/svg">
    <path
        d="M42.81 15.33L30 4.14L17.19 15.33L15 13.14L30 0L45 13.14L42.81 15.33ZM42 19.98L29.85 30.27L18 19.86V17.64L30 7.14L42 17.64V19.98ZM33 23.82V18.72H27V23.82H33ZM27.81 35.91L15 24.72L2.19 35.91L0 33.72L15 20.58L30 33.72L27.81 35.91ZM57.81 35.91L45 24.72L32.19 35.91L30 33.72L45 20.58L60 33.72L57.81 35.91ZM15 27.72L27 38.22V48.72H3V38.22L15 27.72ZM45 27.72L57 38.22V48.72H33V38.22L45 27.72ZM18 45.72V39.72H12V45.72H18ZM48 45.72V39.72H42V45.72H48Z"
        fill="white" />
</svg>
    