<svg width="18" height="19" viewBox="0 0 18 19" fill="none" xmlns="http://www.w3.org/2000/svg">
    <path
        d="M1.20833 7.68166C3.20818 12.2109 6.76164 15.8006 11.1729 17.748L11.8812 18.0762C12.6656 18.4395 13.5482 18.5032 14.3733 18.2561C15.1984 18.0089 15.9132 17.4668 16.3917 16.7253L17.3177 15.291C17.4626 15.0661 17.5213 14.7928 17.4821 14.5251C17.443 14.2575 17.3089 14.0147 17.1062 13.8447L13.9687 11.2122C13.8595 11.1206 13.7335 11.0529 13.5985 11.0132C13.4634 10.9735 13.322 10.9625 13.1828 10.981C13.0436 10.9996 12.9094 11.0471 12.7883 11.1209C12.6672 11.1947 12.5617 11.2932 12.4781 11.4105L11.5073 12.7722C9.01521 11.4922 6.99804 9.39399 5.7677 6.802L7.07604 5.79233C7.18879 5.70541 7.28349 5.59568 7.35446 5.46974C7.42542 5.3438 7.47117 5.20424 7.48898 5.05945C7.50678 4.91466 7.49627 4.76762 7.45806 4.62716C7.41986 4.4867 7.35476 4.35572 7.26666 4.24208L4.73541 0.979082C4.57197 0.768323 4.33857 0.628855 4.08118 0.588151C3.82379 0.547447 3.56108 0.608458 3.34479 0.759165L1.95625 1.72767C1.23895 2.22793 0.715714 2.97676 0.479737 3.84078C0.24376 4.70479 0.310371 5.62787 0.667704 6.44558L1.20833 7.68166Z"
        fill="white" />
</svg>
    