<svg width="80" height="80" viewBox="0 0 80 80" fill="none" xmlns="http://www.w3.org/2000/svg">
    <path
        d="M27.5 65V75M12.5 5H42.5C43.8261 5 45.0979 5.52678 46.0355 6.46447C46.9732 7.40215 47.5 8.67392 47.5 10V74.375C47.5 74.5408 47.4342 74.6997 47.3169 74.8169C47.1997 74.9342 47.0408 75 46.875 75H7.5V10C7.5 8.67392 8.02678 7.40215 8.96447 6.46447C9.90215 5.52678 11.1739 5 12.5 5ZM50 30H67.5C68.8261 30 70.0979 30.5268 71.0355 31.4645C71.9732 32.4021 72.5 33.6739 72.5 35V75H47.5V32.5C47.5 31.837 47.7634 31.2011 48.2322 30.7322C48.7011 30.2634 49.337 30 50 30Z"
        stroke="white" stroke-width="3.75" stroke-linecap="round" stroke-linejoin="round" />
    <path
        d="M15.325 67.4796C14.8072 67.5473 14.2813 67.4512 13.8209 67.2048C13.3605 66.9583 12.9889 66.5739 12.7581 66.1055C12.5274 65.6371 12.4491 65.1082 12.5343 64.593C12.6194 64.0778 12.8638 63.6022 13.233 63.233C13.6023 62.8637 14.0778 62.6194 14.593 62.5342C15.1082 62.449 15.6371 62.5273 16.1056 62.7581C16.574 62.9888 16.9584 63.3605 17.2048 63.8208C17.4513 64.2812 17.5474 64.8072 17.4797 65.3249C17.4082 65.8713 17.1582 66.3788 16.7686 66.7685C16.3789 67.1582 15.8714 67.4082 15.325 67.4796ZM15.325 54.9796C14.8072 55.0473 14.2813 54.9512 13.8209 54.7048C13.3605 54.4583 12.9889 54.0739 12.7581 53.6055C12.5274 53.1371 12.4491 52.6082 12.5343 52.093C12.6194 51.5778 12.8638 51.1022 13.233 50.733C13.6023 50.3637 14.0778 50.1194 14.593 50.0342C15.1082 49.949 15.6371 50.0273 16.1056 50.2581C16.574 50.4888 16.9584 50.8605 17.2048 51.3208C17.4513 51.7812 17.5474 52.3072 17.4797 52.8249C17.4082 53.3713 17.1582 53.8788 16.7686 54.2685C16.3789 54.6582 15.8714 54.9082 15.325 54.9796ZM15.325 42.4796C14.8072 42.5473 14.2813 42.4512 13.8209 42.2048C13.3605 41.9583 12.9889 41.5739 12.7581 41.1055C12.5274 40.6371 12.4491 40.1082 12.5343 39.593C12.6194 39.0778 12.8638 38.6022 13.233 38.233C13.6023 37.8637 14.0778 37.6194 14.593 37.5342C15.1082 37.449 15.6371 37.5273 16.1056 37.7581C16.574 37.9888 16.9584 38.3605 17.2048 38.8208C17.4513 39.2812 17.5474 39.8072 17.4797 40.3249C17.4082 40.8713 17.1582 41.3788 16.7686 41.7685C16.3789 42.1582 15.8714 42.4082 15.325 42.4796ZM15.325 29.9796C14.8072 30.0473 14.2813 29.9512 13.8209 29.7048C13.3605 29.4583 12.9889 29.0739 12.7581 28.6055C12.5274 28.1371 12.4491 27.6082 12.5343 27.093C12.6194 26.5778 12.8638 26.1022 13.233 25.733C13.6023 25.3637 14.0778 25.1194 14.593 25.0342C15.1082 24.949 15.6371 25.0273 16.1056 25.2581C16.574 25.4888 16.9584 25.8605 17.2048 26.3208C17.4513 26.7812 17.5474 27.3072 17.4797 27.8249C17.4082 28.3713 17.1582 28.8788 16.7686 29.2685C16.3789 29.6582 15.8714 29.9082 15.325 29.9796ZM15.325 17.4796C14.8072 17.5473 14.2813 17.4512 13.8209 17.2048C13.3605 16.9583 12.9889 16.5739 12.7581 16.1055C12.5274 15.6371 12.4491 15.1082 12.5343 14.593C12.6194 14.0778 12.8638 13.6022 13.233 13.233C13.6023 12.8637 14.0778 12.6194 14.593 12.5342C15.1082 12.449 15.6371 12.5273 16.1056 12.7581C16.574 12.9888 16.9584 13.3605 17.2048 13.8208C17.4513 14.2812 17.5474 14.8072 17.4797 15.3249C17.4082 15.8713 17.1582 16.3788 16.7686 16.7685C16.3789 17.1582 15.8714 17.4082 15.325 17.4796ZM27.825 54.9796C27.3072 55.0473 26.7813 54.9512 26.3209 54.7048C25.8605 54.4583 25.4889 54.0739 25.2581 53.6055C25.0274 53.1371 24.9491 52.6082 25.0343 52.093C25.1194 51.5778 25.3638 51.1022 25.733 50.733C26.1023 50.3637 26.5778 50.1194 27.093 50.0342C27.6082 49.949 28.1371 50.0273 28.6056 50.2581C29.074 50.4888 29.4584 50.8605 29.7048 51.3208C29.9513 51.7812 30.0474 52.3072 29.9797 52.8249C29.9082 53.3713 29.6582 53.8788 29.2686 54.2685C28.8789 54.6582 28.3714 54.9082 27.825 54.9796ZM27.825 42.4796C27.3072 42.5473 26.7813 42.4512 26.3209 42.2048C25.8605 41.9583 25.4889 41.5739 25.2581 41.1055C25.0274 40.6371 24.9491 40.1082 25.0343 39.593C25.1194 39.0778 25.3638 38.6022 25.733 38.233C26.1023 37.8637 26.5778 37.6194 27.093 37.5342C27.6082 37.449 28.1371 37.5273 28.6056 37.7581C29.074 37.9888 29.4584 38.3605 29.7048 38.8208C29.9513 39.2812 30.0474 39.8072 29.9797 40.3249C29.9082 40.8713 29.6582 41.3788 29.2686 41.7685C28.8789 42.1582 28.3714 42.4082 27.825 42.4796ZM27.825 29.9796C27.3072 30.0473 26.7813 29.9512 26.3209 29.7048C25.8605 29.4583 25.4889 29.0739 25.2581 28.6055C25.0274 28.1371 24.9491 27.6082 25.0343 27.093C25.1194 26.5778 25.3638 26.1022 25.733 25.733C26.1023 25.3637 26.5778 25.1194 27.093 25.0342C27.6082 24.949 28.1371 25.0273 28.6056 25.2581C29.074 25.4888 29.4584 25.8605 29.7048 26.3208C29.9513 26.7812 30.0474 27.3072 29.9797 27.8249C29.9082 28.3713 29.6582 28.8788 29.2686 29.2685C28.8789 29.6582 28.3714 29.9082 27.825 29.9796ZM27.825 17.4796C27.3072 17.5473 26.7813 17.4512 26.3209 17.2048C25.8605 16.9583 25.4889 16.5739 25.2581 16.1055C25.0274 15.6371 24.9491 15.1082 25.0343 14.593C25.1194 14.0778 25.3638 13.6022 25.733 13.233C26.1023 12.8637 26.5778 12.6194 27.093 12.5342C27.6082 12.449 28.1371 12.5273 28.6056 12.7581C29.074 12.9888 29.4584 13.3605 29.7048 13.8208C29.9513 14.2812 30.0474 14.8072 29.9797 15.3249C29.9082 15.8713 29.6582 16.3788 29.2686 16.7685C28.8789 17.1582 28.3714 17.4082 27.825 17.4796ZM40.325 67.4796C39.8072 67.5473 39.2813 67.4512 38.8209 67.2048C38.3605 66.9583 37.9889 66.5739 37.7581 66.1055C37.5274 65.6371 37.4491 65.1082 37.5343 64.593C37.6194 64.0778 37.8638 63.6022 38.233 63.233C38.6023 62.8637 39.0778 62.6194 39.593 62.5342C40.1082 62.449 40.6371 62.5273 41.1056 62.7581C41.574 62.9888 41.9584 63.3605 42.2048 63.8208C42.4513 64.2812 42.5474 64.8072 42.4797 65.3249C42.4082 65.8713 42.1582 66.3788 41.7686 66.7685C41.3789 67.1582 40.8714 67.4082 40.325 67.4796ZM40.325 54.9796C39.8072 55.0473 39.2813 54.9512 38.8209 54.7048C38.3605 54.4583 37.9889 54.0739 37.7581 53.6055C37.5274 53.1371 37.4491 52.6082 37.5343 52.093C37.6194 51.5778 37.8638 51.1022 38.233 50.733C38.6023 50.3637 39.0778 50.1194 39.593 50.0342C40.1082 49.949 40.6371 50.0273 41.1056 50.2581C41.574 50.4888 41.9584 50.8605 42.2048 51.3208C42.4513 51.7812 42.5474 52.3072 42.4797 52.8249C42.4082 53.3713 42.1582 53.8788 41.7686 54.2685C41.3789 54.6582 40.8714 54.9082 40.325 54.9796ZM40.325 42.4796C39.8072 42.5473 39.2813 42.4512 38.8209 42.2048C38.3605 41.9583 37.9889 41.5739 37.7581 41.1055C37.5274 40.6371 37.4491 40.1082 37.5343 39.593C37.6194 39.0778 37.8638 38.6022 38.233 38.233C38.6023 37.8637 39.0778 37.6194 39.593 37.5342C40.1082 37.449 40.6371 37.5273 41.1056 37.7581C41.574 37.9888 41.9584 38.3605 42.2048 38.8208C42.4513 39.2812 42.5474 39.8072 42.4797 40.3249C42.4082 40.8713 42.1582 41.3788 41.7686 41.7685C41.3789 42.1582 40.8714 42.4082 40.325 42.4796Z"
        fill="white" />
    <path
        d="M41.7711 29.2699C42.7443 28.2967 42.7404 26.7147 41.7622 25.7366C40.7841 24.7584 39.2022 24.7545 38.2289 25.7277C37.2557 26.701 37.2596 28.2829 38.2378 29.2611C39.2159 30.2392 40.7978 30.2432 41.7711 29.2699Z"
        fill="white" />
    <path
        d="M40.325 17.4796C39.8072 17.5473 39.2813 17.4512 38.8209 17.2048C38.3605 16.9583 37.9889 16.5739 37.7581 16.1055C37.5274 15.6371 37.4491 15.1082 37.5343 14.593C37.6194 14.0778 37.8638 13.6022 38.233 13.233C38.6023 12.8637 39.0778 12.6194 39.593 12.5342C40.1082 12.449 40.6371 12.5273 41.1056 12.7581C41.574 12.9888 41.9584 13.3605 42.2048 13.8208C42.4513 14.2812 42.5474 14.8072 42.4797 15.3249C42.4082 15.8713 42.1582 16.3788 41.7686 16.7685C41.3789 17.1582 40.8714 17.4082 40.325 17.4796ZM62.5 62.4999C62.0055 62.4999 61.5222 62.6466 61.1111 62.9213C60.6999 63.196 60.3795 63.5864 60.1903 64.0432C60.0011 64.5 59.9516 65.0027 60.048 65.4877C60.1445 65.9726 60.3826 66.4181 60.7322 66.7677C61.0819 67.1173 61.5273 67.3554 62.0123 67.4519C62.4972 67.5484 62.9999 67.4989 63.4567 67.3096C63.9135 67.1204 64.304 66.8 64.5787 66.3889C64.8534 65.9777 65 65.4944 65 64.9999C65 64.3369 64.7366 63.701 64.2678 63.2322C63.7989 62.7633 63.163 62.4999 62.5 62.4999ZM62.5 49.9999C62.0055 49.9999 61.5222 50.1466 61.1111 50.4213C60.6999 50.696 60.3795 51.0864 60.1903 51.5432C60.0011 52 59.9516 52.5027 60.048 52.9877C60.1445 53.4726 60.3826 53.9181 60.7322 54.2677C61.0819 54.6173 61.5273 54.8554 62.0123 54.9519C62.4972 55.0484 62.9999 54.9989 63.4567 54.8096C63.9135 54.6204 64.304 54.3 64.5787 53.8889C64.8534 53.4777 65 52.9944 65 52.4999C65 51.8369 64.7366 51.201 64.2678 50.7322C63.7989 50.2633 63.163 49.9999 62.5 49.9999ZM62.5 37.4999C62.0055 37.4999 61.5222 37.6466 61.1111 37.9213C60.6999 38.196 60.3795 38.5864 60.1903 39.0432C60.0011 39.5 59.9516 40.0027 60.048 40.4877C60.1445 40.9726 60.3826 41.4181 60.7322 41.7677C61.0819 42.1173 61.5273 42.3554 62.0123 42.4519C62.4972 42.5484 62.9999 42.4989 63.4567 42.3096C63.9135 42.1204 64.304 41.8 64.5787 41.3889C64.8534 40.9777 65 40.4944 65 39.9999C65 39.3369 64.7366 38.701 64.2678 38.2322C63.7989 37.7633 63.163 37.4999 62.5 37.4999ZM52.5 62.4999C52.0055 62.4999 51.5222 62.6466 51.1111 62.9213C50.6999 63.196 50.3795 63.5864 50.1903 64.0432C50.0011 64.5 49.9516 65.0027 50.048 65.4877C50.1445 65.9726 50.3826 66.4181 50.7322 66.7677C51.0819 67.1173 51.5273 67.3554 52.0123 67.4519C52.4972 67.5484 52.9999 67.4989 53.4567 67.3096C53.9135 67.1204 54.304 66.8 54.5787 66.3889C54.8534 65.9777 55 65.4944 55 64.9999C55 64.3369 54.7366 63.701 54.2678 63.2322C53.7989 62.7633 53.163 62.4999 52.5 62.4999ZM52.5 49.9999C52.0055 49.9999 51.5222 50.1466 51.1111 50.4213C50.6999 50.696 50.3795 51.0864 50.1903 51.5432C50.0011 52 49.9516 52.5027 50.048 52.9877C50.1445 53.4726 50.3826 53.9181 50.7322 54.2677C51.0819 54.6173 51.5273 54.8554 52.0123 54.9519C52.4972 55.0484 52.9999 54.9989 53.4567 54.8096C53.9135 54.6204 54.304 54.3 54.5787 53.8889C54.8534 53.4777 55 52.9944 55 52.4999C55 51.8369 54.7366 51.201 54.2678 50.7322C53.7989 50.2633 53.163 49.9999 52.5 49.9999ZM52.5 37.4999C52.0055 37.4999 51.5222 37.6466 51.1111 37.9213C50.6999 38.196 50.3795 38.5864 50.1903 39.0432C50.0011 39.5 49.9516 40.0027 50.048 40.4877C50.1445 40.9726 50.3826 41.4181 50.7322 41.7677C51.0819 42.1173 51.5273 42.3554 52.0123 42.4519C52.4972 42.5484 52.9999 42.4989 53.4567 42.3096C53.9135 42.1204 54.304 41.8 54.5787 41.3889C54.8534 40.9777 55 40.4944 55 39.9999C55 39.3369 54.7366 38.701 54.2678 38.2322C53.7989 37.7633 53.163 37.4999 52.5 37.4999Z"
        fill="white" />
</svg>
    