<svg width="55" height="55" viewBox="0 0 55 55" fill="none" xmlns="http://www.w3.org/2000/svg">
    <path
        d="M13.75 45.8333C12.4896 45.8333 11.4102 45.3842 10.5119 44.4858C9.61354 43.5875 9.16514 42.5089 9.16667 41.25C9.16667 39.9896 9.61583 38.9102 10.5142 38.0119C11.4125 37.1135 12.4911 36.6651 13.75 36.6667C15.0104 36.6667 16.0898 37.1158 16.9881 38.0142C17.8865 38.9125 18.3349 39.9911 18.3333 41.25C18.3333 42.5104 17.8842 43.5898 16.9858 44.4881C16.0875 45.3865 15.0089 45.8349 13.75 45.8333ZM13.75 32.0833C12.4896 32.0833 11.4102 31.6342 10.5119 30.7358C9.61354 29.8375 9.16514 28.7589 9.16667 27.5C9.16667 26.2396 9.61583 25.1602 10.5142 24.2619C11.4125 23.3635 12.4911 22.9151 13.75 22.9167C15.0104 22.9167 16.0898 23.3658 16.9881 24.2642C17.8865 25.1625 18.3349 26.2411 18.3333 27.5C18.3333 28.7604 17.8842 29.8398 16.9858 30.7381C16.0875 31.6365 15.0089 32.0849 13.75 32.0833ZM13.75 18.3333C12.4896 18.3333 11.4102 17.8842 10.5119 16.9858C9.61354 16.0875 9.16514 15.0089 9.16667 13.75C9.16667 12.4896 9.61583 11.4102 10.5142 10.5119C11.4125 9.61354 12.4911 9.16513 13.75 9.16666C15.0104 9.16666 16.0898 9.61583 16.9881 10.5142C17.8865 11.4125 18.3349 12.4911 18.3333 13.75C18.3333 15.0104 17.8842 16.0898 16.9858 16.9881C16.0875 17.8865 15.0089 18.3349 13.75 18.3333ZM27.5 32.0833C26.2396 32.0833 25.1602 31.6342 24.2619 30.7358C23.3635 29.8375 22.9151 28.7589 22.9167 27.5C22.9167 26.2396 23.3658 25.1602 24.2642 24.2619C25.1625 23.3635 26.2411 22.9151 27.5 22.9167C28.7604 22.9167 29.8398 23.3658 30.7381 24.2642C31.6365 25.1625 32.0849 26.2411 32.0833 27.5L27.5 32.0833ZM27.5 18.3333C26.2396 18.3333 25.1602 17.8842 24.2619 16.9858C23.3635 16.0875 22.9151 15.0089 22.9167 13.75C22.9167 12.4896 23.3658 11.4102 24.2642 10.5119C25.1625 9.61354 26.2411 9.16513 27.5 9.16666C28.7604 9.16666 29.8398 9.61583 30.7381 10.5142C31.6365 11.4125 32.0849 12.4911 32.0833 13.75C32.0833 15.0104 31.6342 16.0898 30.7358 16.9881C29.8375 17.8865 28.7589 18.3349 27.5 18.3333ZM25.2083 45.8333V40.9635L37.3542 28.8177L42.224 33.6875L30.0781 45.8333H25.2083ZM41.25 18.3333C39.9896 18.3333 38.9102 17.8842 38.0119 16.9858C37.1135 16.0875 36.6651 15.0089 36.6667 13.75C36.6667 12.4896 37.1158 11.4102 38.0142 10.5119C38.9125 9.61354 39.9911 9.16513 41.25 9.16666C42.5104 9.16666 43.5898 9.61583 44.4881 10.5142C45.3865 11.4125 45.8349 12.4911 45.8333 13.75C45.8333 15.0104 45.3842 16.0898 44.4858 16.9881C43.5875 17.8865 42.5089 18.3349 41.25 18.3333ZM43.8281 32.0833L38.9583 27.2135L42.224 23.9479L47.0938 28.8177L43.8281 32.0833Z"
        fill="white" />
</svg>
    