<svg width="69" height="66" viewBox="0 0 69 66" fill="none" xmlns="http://www.w3.org/2000/svg">
<path d="M11.5 49.5H57.5C59.0812 49.5 60.375 48.2625 60.375 46.75C60.375 45.2375 59.0812 44 57.5 44H11.5C9.91875 44 8.625 45.2375 8.625 46.75C8.625 48.2625 9.91875 49.5 11.5 49.5ZM11.5 35.75H57.5C59.0812 35.75 60.375 34.5125 60.375 33C60.375 31.4875 59.0812 30.25 57.5 30.25H11.5C9.91875 30.25 8.625 31.4875 8.625 33C8.625 34.5125 9.91875 35.75 11.5 35.75ZM8.625 19.25C8.625 20.7625 9.91875 22 11.5 22H57.5C59.0812 22 60.375 20.7625 60.375 19.25C60.375 17.7375 59.0812 16.5 57.5 16.5H11.5C9.91875 16.5 8.625 17.7375 8.625 19.25Z" fill="#25D366"/>
</svg>
